<?xml version="1.0" standalone="no"?>
<!DOCTYPE svg PUBLIC "-//W3C//DTD SVG 20010904//EN"
 "http://www.w3.org/TR/2001/REC-SVG-20010904/DTD/svg10.dtd">
<svg version="1.0" xmlns="http://www.w3.org/2000/svg"
 width="1200.000000pt" height="1200.000000pt" viewBox="0 0 1200.000000 1200.000000"
 preserveAspectRatio="xMidYMid meet">
<metadata>
Created by potrace 1.14, written by Peter Selinger 2001-2017
</metadata>
<g transform="translate(0.000000,1200.000000) scale(0.100000,-0.100000)"
fill="#000000" stroke="none">
<path d="M4592 10781 c-45 -10 -84 -18 -85 -19 -97 -16 -338 -127 -403 -185
-30 -27 -43 -37 -49 -37 -3 0 -16 -10 -29 -22 -13 -13 -34 -33 -47 -45 -42
-37 -104 -107 -129 -143 -14 -19 -33 -44 -43 -55 -23 -26 -137 -253 -137 -275
0 -9 -3 -20 -7 -24 -5 -4 -9 -12 -9 -17 -1 -5 -2 -10 -4 -11 -1 -2 -3 -10 -5
-18 -2 -8 -11 -49 -20 -90 -17 -74 -28 -316 -25 -530 1 -52 1 -111 0 -130 -1
-19 -2 -41 -1 -47 3 -33 3 -231 1 -273 -1 -19 -2 -41 -1 -47 3 -33 3 -231 1
-273 -1 -19 -2 -41 -1 -47 2 -19 3 -203 2 -253 0 -12 0 -422 0 -480 0 -13 1
-923 0 -960 0 -8 0 -224 0 -480 0 -256 0 -472 0 -480 0 -8 0 -67 0 -130 1 -63
1 -122 0 -130 -4 -118 4 -329 15 -380 3 -14 7 -38 10 -55 9 -45 64 -209 75
-220 5 -5 9 -15 9 -22 0 -16 98 -187 111 -191 5 -2 9 -10 9 -17 0 -20 193
-214 260 -262 60 -43 124 -81 197 -117 47 -23 187 -74 228 -82 27 -5 65 -14
95 -21 14 -4 1440 -8 3170 -9 l3145 -2 110 24 c61 13 115 25 120 27 102 37
182 72 240 106 58 33 175 116 185 130 3 4 18 16 33 28 15 12 27 23 26 25 -1 2
17 23 42 48 57 59 76 83 121 150 29 45 125 227 128 245 7 43 14 66 21 71 5 3
7 10 3 15 -3 5 0 16 6 24 7 8 10 15 7 15 -5 0 7 57 21 95 11 32 12 4481 1
4550 -5 33 -11 72 -14 87 -2 15 -11 49 -19 77 -8 27 -12 52 -9 55 4 3 1 6 -5
6 -7 0 -12 7 -12 15 0 9 -9 35 -20 57 -11 23 -20 45 -20 49 0 29 -131 228
-197 299 -18 19 -33 38 -33 43 0 4 -6 7 -14 7 -8 0 -18 9 -21 20 -3 11 -11 20
-16 20 -5 0 -17 8 -27 18 -10 9 -30 26 -46 37 -15 11 -39 30 -53 42 -15 12
-56 36 -92 55 -36 18 -68 36 -71 39 -15 17 -224 87 -285 95 -22 4 -51 9 -65
12 -14 4 -1436 7 -3160 8 -2969 2 -3139 1 -3218 -15z m1243 -1196 c43 -9 159
-57 163 -67 2 -4 9 -8 15 -8 7 0 28 -14 47 -31 19 -17 42 -36 50 -43 9 -6 34
-33 57 -61 187 -229 170 -582 -39 -793 -34 -34 -65 -62 -69 -62 -4 0 -14 -6
-21 -14 -26 -26 -119 -67 -194 -86 -89 -23 -229 -21 -314 5 -55 17 -172 75
-194 98 -7 7 -28 26 -47 42 -40 35 -99 109 -99 123 0 5 -7 15 -15 22 -8 7 -13
16 -10 20 3 5 2 10 -2 12 -5 1 -19 34 -32 72 -18 51 -25 95 -27 165 -5 190 65
356 198 466 26 22 54 45 61 51 12 11 76 47 87 49 3 1 14 6 25 10 66 29 146 42
235 40 52 -2 108 -6 125 -10z m2829 -601 c120 -32 201 -96 291 -230 32 -49 61
-91 64 -94 4 -3 12 -17 20 -32 8 -15 22 -37 33 -47 10 -11 18 -23 18 -26 0 -3
28 -47 63 -97 34 -50 67 -98 72 -107 21 -34 429 -646 434 -651 4 -3 12 -17 20
-32 8 -15 21 -36 30 -46 9 -10 25 -33 35 -52 11 -19 22 -37 26 -40 3 -3 50
-72 105 -155 54 -82 102 -151 107 -153 4 -2 8 -8 8 -12 0 -12 201 -314 212
-318 4 -2 8 -7 8 -12 0 -11 242 -374 252 -378 5 -2 8 -7 8 -12 0 -12 101 -164
112 -168 4 -2 8 -8 8 -13 0 -5 33 -58 74 -119 110 -162 131 -213 131 -330 0
-98 -6 -134 -29 -178 -9 -18 -13 -32 -9 -32 5 0 3 -4 -3 -8 -5 -4 -20 -23 -32
-43 -18 -30 -79 -91 -128 -129 -27 -20 -104 -49 -159 -60 -44 -8 -745 -10
-2665 -8 -1433 2 -2612 6 -2620 9 -79 26 -124 46 -140 62 -11 10 -20 15 -20
12 0 -25 -139 139 -144 169 -1 8 -8 21 -15 30 -7 9 -11 16 -7 16 3 0 1 12 -5
28 -16 42 -20 151 -8 212 14 65 52 149 85 185 13 14 24 30 24 35 0 4 3 10 8
12 4 2 59 68 122 148 126 159 144 181 178 218 12 14 22 28 22 31 0 3 12 20 28
36 15 17 40 48 56 70 16 22 37 48 45 57 9 9 21 23 26 30 25 33 130 164 140
174 5 7 19 24 30 40 11 15 25 32 30 38 6 6 26 31 45 56 18 25 41 52 49 62 9 9
27 31 41 49 14 18 48 61 75 95 28 34 64 79 80 100 17 21 38 46 48 56 9 10 17
23 17 28 0 6 5 10 10 10 6 0 10 5 10 10 0 6 8 18 18 28 9 10 33 37 52 61 111
140 179 188 305 220 65 17 183 7 253 -20 34 -13 62 -27 62 -31 0 -5 6 -8 14
-8 27 0 127 -106 249 -265 4 -5 19 -23 33 -40 13 -16 44 -55 67 -85 22 -30 49
-63 58 -72 9 -9 19 -23 22 -30 3 -9 10 -7 26 9 11 12 21 27 21 33 0 5 5 10 10
10 6 0 10 6 10 13 0 8 11 27 24 42 13 15 30 40 38 54 7 14 19 30 25 34 7 4 13
12 13 17 0 11 122 194 133 198 4 2 7 8 7 13 0 4 34 58 75 118 41 61 75 115 75
121 0 5 5 10 10 10 6 0 13 7 17 16 3 9 71 113 150 230 78 118 143 219 143 224
0 6 4 10 8 10 4 0 21 23 37 50 16 28 33 50 37 50 4 0 8 4 8 10 0 5 16 32 35
59 19 26 35 53 35 60 0 6 5 11 10 11 6 0 14 8 18 18 4 9 33 56 64 103 93 140
185 210 308 235 13 3 26 7 28 9 9 9 140 1 186 -11z"/>
<path d="M1219 8405 c-3 -2 -49 -7 -103 -10 -55 -3 -102 -8 -105 -9 -3 -2 -22
-7 -41 -10 -19 -3 -60 -13 -90 -21 -30 -9 -59 -17 -65 -18 -5 -2 -16 -6 -22
-10 -7 -5 -13 -6 -13 -3 0 8 -222 -105 -238 -121 -7 -7 -26 -20 -42 -30 -17
-9 -30 -21 -30 -25 0 -4 -5 -8 -11 -8 -5 0 -32 -21 -60 -47 -27 -27 -55 -53
-61 -59 -26 -23 -94 -108 -135 -169 -39 -57 -112 -194 -118 -220 -1 -5 -7 -23
-13 -38 -7 -16 -12 -34 -12 -41 0 -7 -3 -16 -7 -20 -4 -3 -8 -12 -9 -19 -1 -7
-10 -43 -20 -82 -17 -66 -18 -208 -21 -2615 -1 -1699 1 -2562 8 -2595 6 -27
12 -62 14 -77 2 -15 11 -49 19 -77 8 -27 12 -52 9 -55 -4 -3 -1 -6 5 -6 7 0
12 -6 12 -14 0 -18 42 -120 53 -127 5 -3 9 -10 8 -15 0 -8 53 -103 82 -148 16
-24 52 -68 99 -120 21 -22 38 -45 38 -49 0 -5 4 -6 9 -2 5 3 12 -4 16 -15 3
-11 10 -20 15 -20 7 0 50 -34 90 -71 9 -8 23 -19 31 -22 8 -4 28 -16 44 -27
44 -30 251 -130 268 -130 8 0 32 -6 54 -14 22 -8 55 -16 74 -19 19 -4 61 -10
94 -16 38 -6 1397 -10 3760 -10 3595 0 3703 0 3800 19 101 19 172 37 190 48 6
4 19 8 30 9 10 2 30 10 42 18 13 9 23 13 23 10 0 -2 21 7 48 22 26 15 56 31
67 37 44 24 125 81 125 88 0 5 5 8 10 8 15 0 115 95 185 175 58 68 191 295
203 350 5 22 25 91 30 105 8 24 11 38 28 130 13 76 20 313 9 331 -3 4 -1 10 5
14 6 4 8 10 5 15 -4 7 -5 77 -4 285 0 11 0 92 0 180 0 88 0 165 0 170 1 6 0
55 0 110 0 55 0 107 0 115 1 8 0 48 -1 88 l-2 72 -407 1 c-223 1 -409 1 -412
1 -24 -3 -139 -4 -699 -3 -31 0 -476 0 -490 0 -8 0 -114 0 -235 0 -121 0 -227
0 -235 -1 -8 0 -62 0 -120 1 -58 0 -113 0 -122 0 -10 0 -75 0 -144 1 -70 0
-128 -1 -129 -2 -2 -2 -5 -163 -7 -358 -4 -313 -7 -362 -23 -410 -10 -30 -18
-58 -17 -62 1 -5 -2 -8 -8 -8 -5 0 -10 -8 -10 -19 0 -10 -7 -24 -15 -31 -8 -7
-15 -17 -15 -23 0 -14 -76 -104 -114 -137 -52 -44 -100 -76 -136 -90 -19 -7
-39 -16 -45 -20 -5 -4 -23 -11 -40 -15 -16 -4 -39 -9 -50 -12 -11 -3 -60 -7
-110 -9 -49 -2 -92 -4 -95 -5 -3 -1 -9 -1 -14 0 -24 5 -287 2 -295 -4 -5 -3
-12 -2 -14 2 -3 5 -40 6 -82 3 -42 -3 -78 -3 -80 0 -2 3 -38 3 -80 0 -42 -3
-78 -3 -80 0 -2 3 -36 3 -77 0 -41 -3 -114 -3 -163 0 -50 3 -115 3 -145 0 -30
-3 -97 -3 -148 0 -52 3 -96 2 -99 -3 -2 -4 -8 -5 -13 -2 -5 3 -64 5 -132 5
-68 -1 -132 -1 -143 -1 -11 0 -58 0 -105 0 -47 0 -89 -1 -95 -1 -5 1 -111 1
-235 1 -408 0 -450 3 -547 47 -17 8 -33 14 -36 14 -26 0 -217 159 -217 181 0
4 -6 14 -13 21 -18 18 -59 96 -72 138 -11 37 -25 91 -29 115 -2 17 -5 1258 -5
2758 l-1 2728 -37 -1 c-21 -1 -171 -1 -333 -1 -162 0 -302 0 -310 0 -139 -1
-972 0 -1019 1 -36 1 -68 3 -72 5 -3 3 -8 3 -10 0z m359 -1206 c84 -1 137 -7
171 -19 55 -18 141 -83 141 -106 0 -8 4 -14 8 -14 5 0 17 -17 27 -37 17 -33
20 -66 23 -245 5 -271 -2 -298 -102 -402 -22 -23 -41 -40 -43 -39 -1 1 -20 -6
-40 -15 -32 -14 -72 -17 -264 -17 -221 0 -226 1 -275 25 -91 46 -144 112 -164
202 -16 72 -10 452 8 470 6 6 12 18 12 25 0 15 8 26 55 76 32 35 95 82 95 72
0 -3 12 1 28 8 15 8 60 15 101 15 41 1 76 4 79 7 3 2 8 2 12 0 4 -3 62 -5 128
-6z m160 -1962 c74 -20 143 -83 185 -167 20 -42 22 -60 24 -260 2 -192 0 -220
-18 -266 -24 -64 -90 -134 -154 -165 -48 -23 -57 -24 -270 -23 -215 1 -285 7
-285 25 0 5 -7 9 -16 9 -27 0 -111 97 -132 152 -17 46 -20 80 -21 248 -2 196
9 276 42 317 107 132 141 143 417 139 113 -1 216 -5 228 -9z m37 -1967 c69
-34 109 -72 142 -138 28 -57 28 -58 30 -272 2 -251 -6 -288 -84 -366 -70 -71
-115 -87 -263 -91 -69 -2 -133 -5 -142 -7 -10 -2 -18 -1 -18 2 0 4 -37 7 -83
7 -67 0 -91 5 -132 25 -64 31 -120 87 -148 147 -21 45 -22 62 -22 273 0 218 1
227 24 275 14 28 33 57 43 66 10 9 18 21 18 28 0 6 5 11 10 11 6 0 23 9 39 21
58 43 94 48 321 46 206 -2 217 -3 265 -27z m6558 16 c102 -31 185 -118 207
-217 8 -35 11 -122 8 -249 -3 -183 -5 -198 -27 -245 -42 -85 -126 -152 -216
-170 -16 -3 -57 -5 -90 -5 -33 1 -67 1 -75 1 -122 -2 -204 0 -236 5 -96 15
-180 77 -225 169 -23 49 -24 57 -24 275 l0 225 30 59 c16 32 35 61 42 63 7 3
13 11 13 19 0 8 5 14 12 14 6 0 19 7 29 16 9 8 39 23 65 34 41 15 80 18 244
19 145 1 207 -2 243 -13z"/>
</g>
</svg>
