<svg width="150" height="120" viewBox="0 0 150 120" fill="none" xmlns="http://www.w3.org/2000/svg">
    <g clip-path="url(#clip0_83_6)">
        <path d="M60 0H135C143.273 0 150 6.72656 150 15V67.5C150 75.7734 143.273 82.5 135 82.5H60C51.7266 82.5 45 75.7734 45 67.5V15C45 6.72656 51.7266 0 60 0ZM111.562 25.0078C110.508 23.4375 108.75 22.5 106.875 22.5C105 22.5 103.242 23.4375 102.188 25.0078L89.0625 44.6953L85.0078 39.6094C83.9297 38.2734 82.3125 37.5 80.625 37.5C78.9375 37.5 77.2969 38.2734 76.2422 39.6094L61.2422 58.3594C59.8828 60.0469 59.625 62.3672 60.5625 64.3125C61.5 66.2578 63.4688 67.5 65.625 67.5H84.375H95.625H129.375C131.461 67.5 133.359 66.3516 134.344 64.5234C135.328 62.6953 135.211 60.4687 134.062 58.7578L111.562 25.0078ZM78.75 22.5C78.75 20.5109 77.9598 18.6032 76.5533 17.1967C75.1468 15.7902 73.2391 15 71.25 15C69.2609 15 67.3532 15.7902 65.9467 17.1967C64.5402 18.6032 63.75 20.5109 63.75 22.5C63.75 24.4891 64.5402 26.3968 65.9467 27.8033C67.3532 29.2098 69.2609 30 71.25 30C73.2391 30 75.1468 29.2098 76.5533 27.8033C77.9598 26.3968 78.75 24.4891 78.75 22.5ZM15 30H37.5V90V97.5C37.5 101.648 40.8516 105 45 105H75C79.1484 105 82.5 101.648 82.5 97.5V90H120V105C120 113.273 113.273 120 105 120H15C6.72656 120 0 113.273 0 105V45C0 36.7266 6.72656 30 15 30ZM16.875 45C14.8125 45 13.125 46.6875 13.125 48.75V52.5C13.125 54.5625 14.8125 56.25 16.875 56.25H20.625C22.6875 56.25 24.375 54.5625 24.375 52.5V48.75C24.375 46.6875 22.6875 45 20.625 45H16.875ZM16.875 69.375C14.8125 69.375 13.125 71.0625 13.125 73.125V76.875C13.125 78.9375 14.8125 80.625 16.875 80.625H20.625C22.6875 80.625 24.375 78.9375 24.375 76.875V73.125C24.375 71.0625 22.6875 69.375 20.625 69.375H16.875ZM16.875 93.75C14.8125 93.75 13.125 95.4375 13.125 97.5V101.25C13.125 103.313 14.8125 105 16.875 105H20.625C22.6875 105 24.375 103.313 24.375 101.25V97.5C24.375 95.4375 22.6875 93.75 20.625 93.75H16.875ZM95.625 97.5V101.25C95.625 103.313 97.3125 105 99.375 105H103.125C105.188 105 106.875 103.313 106.875 101.25V97.5C106.875 95.4375 105.188 93.75 103.125 93.75H99.375C97.3125 93.75 95.625 95.4375 95.625 97.5Z" fill="#0B78FF"/>
    </g>
    <defs>
        <clipPath id="clip0_83_6">
            <rect width="150" height="120" fill="white"/>
        </clipPath>
    </defs>
</svg>
