<?xml version="1.0" encoding="utf-8"?>
<svg version="1.1" id="Layer_1" xmlns="http://www.w3.org/2000/svg" xmlns:xlink="http://www.w3.org/1999/xlink" x="0px" y="0px"
	 viewBox="0 0 51 51" style="enable-background:new 0 0 51 51;" xml:space="preserve">
<style type="text/css">
	.st0{fill:#FFFFFF;}
	.st1{fill:#0B78FF;}
</style>
<path class="st1" d="M37.5,0h-24C6.1,0,0,6.1,0,13.5v24C0,45,6.1,51,13.5,51h24C45,51,51,45,51,37.5v-24C51,6.1,45,0,37.5,0z
	 M14.3,14.3v2.5h21.2c4.8,0,8.7,3.9,8.7,8.7v3c-2.1-2.6-5.3-4.2-8.7-4.2H15.5c-4.8,0-8.7-3.9-8.7-8.7s3.9-8.7,8.7-8.7h19.9
	c4.8,0,8.7,3.9,8.7,8.7v3c-2.1-2.6-5.3-4.2-8.7-4.2H14.3z M35.5,44.2H15.5c-4.8,0-8.7-3.9-8.7-8.7v-3c2.1,2.6,5.3,4.2,8.7,4.2h21.1
	v-2.5H15.5c-4.8,0-8.7-3.9-8.7-8.7v-3c2.1,2.6,5.3,4.2,8.7,4.2h19.9c4.8,0,8.7,3.9,8.7,8.7S40.3,44.2,35.5,44.2z"/>
</svg>
